<svg xmlns="http://www.w3.org/2000/svg" viewBox="0 0 64 64" role="img" aria-label="UAE Air Defense Incident Dashboard favicon">
  <defs>
    <linearGradient id="bg" x1="0%" y1="0%" x2="100%" y2="100%">
      <stop offset="0%" stop-color="#0f172a" />
      <stop offset="100%" stop-color="#020617" />
    </linearGradient>
    <linearGradient id="shield" x1="0%" y1="0%" x2="100%" y2="100%">
      <stop offset="0%" stop-color="#ef4444" />
      <stop offset="100%" stop-color="#f97316" />
    </linearGradient>
  </defs>

  <rect width="64" height="64" rx="14" fill="url(#bg)" />

  <path
    d="M32 8 49 14v14c0 12.2-7.4 22.1-17 27.8C22.4 50.1 15 40.2 15 28V14Z"
    fill="url(#shield)"
  />

  <path
    d="M32 15.5 43 19.4v8.4c0 8.5-4.6 15.6-11 20-6.4-4.4-11-11.5-11-20v-8.4Z"
    fill="#0f172a"
    opacity="0.94"
  />

  <circle cx="32" cy="31" r="3.2" fill="#38bdf8" />
  <path d="M32 21a10 10 0 0 1 10 10" fill="none" stroke="#38bdf8" stroke-width="2.6" stroke-linecap="round" opacity="0.95" />
  <path d="M32 16.5A14.5 14.5 0 0 1 46.5 31" fill="none" stroke="#38bdf8" stroke-width="2.2" stroke-linecap="round" opacity="0.7" />
  <path d="M32 31l8.5-8.5" fill="none" stroke="#22c55e" stroke-width="2.8" stroke-linecap="round" />
  <circle cx="40.5" cy="22.5" r="2.4" fill="#22c55e" />
</svg>
